<svg width="24" height="24" viewBox="0 0 24 24" fill="none" xmlns="http://www.w3.org/2000/svg">
<path d="M10.0681 16.8258L7.2577 20.5731C7.08433 20.8042 6.75169 20.8407 6.53231 20.6527L3.47325 18.0306C3.23038 17.8225 3.24275 17.4429 3.49865 17.251L7.21649 14.4626C7.38633 14.3353 7.45473 14.1091 7.39525 13.9053C5.21213 6.42451 10.3132 3.55848 13.773 3.07581C14.1888 3.01781 14.422 3.48599 14.159 3.8132L12.1102 6.36281C12.0389 6.4516 12 6.56209 12 6.676V9.53005C12 9.6702 12.0588 9.80392 12.1621 9.89863L14.8225 12.3373C14.9347 12.4401 15.0875 12.4863 15.2379 12.4627L18.0266 12.0252C18.1312 12.0088 18.2278 11.9597 18.3027 11.8848L20.6448 9.54274C20.9683 9.21917 21.5048 9.46889 21.4412 9.92205C20.3982 17.3551 13.8798 17.892 10.6859 16.6592C10.4647 16.5738 10.2104 16.6361 10.0681 16.8258Z" stroke="#64748B" stroke-width="1.5" stroke-linecap="round"/>
</svg>
