<svg width="24" height="24" viewBox="0 0 24 24" fill="none" xmlns="http://www.w3.org/2000/svg">
<path d="M11.0005 2C13.7619 2 16.0005 4.23858 16.0005 7C16.0005 7.55228 15.5528 8 15.0005 8C14.4482 8 14.0005 7.55228 14.0005 7C14.0005 5.34315 12.6573 4 11.0005 4H7.0005C5.3436 4 4.0005 5.34315 4.0005 7V17C4.0005 18.6569 5.3436 20 7.0005 20H11.0005C12.6573 20 14.0005 18.6569 14.0005 17C14.0005 16.4477 14.4482 16 15.0005 16C15.5528 16 16.0005 16.4477 16.0005 17C16.0005 19.7614 13.7619 22 11.0005 22H7.0005C4.2391 22 2.0005 19.7614 2.0005 17V7C2.0005 4.23858 4.2391 2 7.0005 2H11.0005Z" fill="#64748B"/>
<path d="M10.0005 11C9.44819 11 9.00049 11.4477 9.00049 12C9.00049 12.5523 9.44819 13 10.0005 13V11Z" fill="#64748B"/>
<path d="M18.2824 11C18.1934 10.8902 18.1081 10.7837 18.0274 10.682C17.7819 10.3723 17.5741 10.1004 17.4273 9.90544C17.3539 9.8079 17.2956 9.72941 17.2553 9.67487L17.2087 9.61157L17.1962 9.59449L17.1918 9.58843C17.1918 9.58837 17.1913 9.58773 18.0003 8.99995L17.1918 9.58843C16.8672 9.14162 16.9657 8.51556 17.4126 8.19093C17.8593 7.86632 18.4847 7.96535 18.8093 8.4121L18.8121 8.41597L18.8224 8.42997L18.8641 8.48674C18.9011 8.53677 18.9557 8.61028 19.0251 8.70245C19.164 8.88697 19.3615 9.14537 19.5946 9.43932C20.0658 10.0337 20.6627 10.7481 21.2074 11.2929L21.9146 12L21.2074 12.7071C20.6627 13.2519 20.0658 13.9663 19.5946 14.5606C19.3615 14.8546 19.164 15.1129 19.0251 15.2975C18.9557 15.3896 18.9011 15.4632 18.8641 15.5132L18.8224 15.57L18.8121 15.584L18.8098 15.5872C18.4852 16.0339 17.8593 16.1336 17.4126 15.809C16.9657 15.4844 16.8667 14.859 17.1913 14.4122L18.0003 15C17.1913 14.4122 17.1913 14.4123 17.1913 14.4122L17.1962 14.4055L17.2087 14.3884L17.2553 14.3251C17.2956 14.2705 17.3539 14.192 17.4273 14.0944C17.5741 13.8995 17.7819 13.6277 18.0274 13.318C18.1081 13.2163 18.1934 13.1098 18.2824 13H10.0003V11H18.2824Z" fill="#64748B"/>
</svg>
