<svg width="24" height="24" viewBox="0 0 24 24" fill="none" xmlns="http://www.w3.org/2000/svg">
<path d="M18.9515 5.22442C18.7591 5.09992 18.539 5.0246 18.3106 5.00508C18.0822 4.98556 17.8526 5.02244 17.6418 5.11248L10.7351 7.83263C10.5716 7.89918 10.3967 7.93339 10.2201 7.93337H5.79851C5.4274 7.93337 5.0715 8.08079 4.80909 8.34321C4.54667 8.60562 4.39925 8.96152 4.39925 9.33263V9.44457H3V12.8028H4.39925V12.9483C4.40802 13.3136 4.55931 13.6609 4.82077 13.9161C5.08224 14.1713 5.43315 14.3141 5.79851 14.314L7.47761 17.8737C7.59131 18.1134 7.77031 18.3162 7.99406 18.4587C8.21781 18.6013 8.47723 18.6779 8.74254 18.6796H9.44776C9.81692 18.6767 10.17 18.528 10.43 18.2659C10.6899 18.0038 10.8358 17.6496 10.8358 17.2804V14.4483L17.6418 17.1684C17.8092 17.2351 17.9877 17.2693 18.1679 17.2692C18.4474 17.2647 18.7196 17.1791 18.9515 17.0229C19.1356 16.8986 19.2875 16.7322 19.3945 16.5376C19.5016 16.3429 19.5608 16.1256 19.5672 15.9035V6.3774C19.5661 6.14962 19.5095 5.92554 19.4022 5.72461C19.2949 5.52367 19.1402 5.35197 18.9515 5.22442ZM9.43657 9.33263V12.9483H5.79851V9.33263H9.43657ZM9.43657 17.2804H8.73134L7.35448 14.314H9.43657V17.2804ZM11.25 13.1162C11.1171 13.0483 10.9785 12.9921 10.8358 12.9483V9.25427C10.9771 9.22511 11.1157 9.18392 11.25 9.13113L18.1679 6.3774V15.8699L11.25 13.1162ZM19.6007 9.72442V12.5229C19.9719 12.5229 20.3278 12.3755 20.5902 12.1131C20.8526 11.8507 21 11.4948 21 11.1237C21 10.7526 20.8526 10.3967 20.5902 10.1343C20.3278 9.87184 19.9719 9.72442 19.6007 9.72442Z" fill="#64748B"/>
</svg>
