<svg width="22" height="22" viewBox="0 0 22 22" fill="none" xmlns="http://www.w3.org/2000/svg">
<path fill-rule="evenodd" clip-rule="evenodd" d="M11 0.25C10.3953 0.25 9.8384 0.40029 9.2288 0.65242C8.64008 0.89588 7.95633 1.25471 7.1049 1.70153L5.03739 2.78651C3.99242 3.33487 3.15616 3.77371 2.51047 4.20491C1.84154 4.65164 1.32632 5.12201 0.95112 5.75918C0.57718 6.39421 0.40896 7.08184 0.32829 7.90072C0.24999 8.69558 0.24999 9.6731 0.25 10.9026V11.0974C0.24999 12.3268 0.24999 13.3044 0.32829 14.0993C0.40896 14.9182 0.57718 15.6058 0.95112 16.2408C1.32632 16.878 1.84154 17.3484 2.51047 17.7951C3.15616 18.2263 3.99241 18.6651 5.03737 19.2135L7.10481 20.2984C7.95628 20.7453 8.64006 21.1041 9.2288 21.3476C9.8384 21.5997 10.3953 21.75 11 21.75C11.6047 21.75 12.1616 21.5997 12.7712 21.3476C13.3599 21.1041 14.0437 20.7453 14.8951 20.2985L16.9626 19.2135C18.0076 18.6651 18.8438 18.2263 19.4895 17.7951C20.1585 17.3484 20.6737 16.878 21.0489 16.2408C21.4228 15.6058 21.591 14.9182 21.6717 14.0993C21.75 13.3044 21.75 12.3269 21.75 11.0975V10.9025C21.75 9.6731 21.75 8.69557 21.6717 7.90072C21.591 7.08184 21.4228 6.39421 21.0489 5.75918C20.6737 5.12201 20.1585 4.65164 19.4895 4.20491C18.8438 3.77371 18.0076 3.33487 16.9626 2.7865L14.8951 1.70154C14.0437 1.25472 13.3599 0.89589 12.7712 0.65242C12.1616 0.40029 11.6047 0.25 11 0.25ZM7.7708 3.04608C8.66052 2.57917 9.284 2.2528 9.802 2.03856C10.3062 1.83004 10.6605 1.75 11 1.75C11.3395 1.75 11.6938 1.83004 12.198 2.03856C12.716 2.2528 13.3395 2.57917 14.2292 3.04608L16.2292 4.09563C17.3189 4.66748 18.0845 5.07032 18.6565 5.45232C18.9387 5.64078 19.1604 5.81578 19.3395 5.99174L16.0088 7.65708L7.50895 3.18349L7.7708 3.04608ZM5.94466 4.00439L5.7708 4.09563C4.68111 4.66747 3.91553 5.07032 3.34352 5.45232C3.06131 5.64078 2.83956 5.81578 2.66054 5.99174L11 10.1615L14.3572 8.48289L6.15069 4.16369C6.07096 4.12173 6.00191 4.06743 5.94466 4.00439ZM1.93768 7.30737C1.88718 7.52125 1.84901 7.76413 1.82106 8.04778C1.75084 8.7606 1.75 9.6644 1.75 10.9415V11.0585C1.75 12.3356 1.75084 13.2394 1.82106 13.9522C1.88974 14.6494 2.02022 15.1002 2.24367 15.4797C2.46587 15.857 2.78727 16.1762 3.34352 16.5477C3.91553 16.9297 4.68111 17.3325 5.7708 17.9044L7.7708 18.9539C8.66052 19.4208 9.284 19.7472 9.802 19.9614C9.9656 20.0291 10.1134 20.0832 10.25 20.1255V11.4635L1.93768 7.30737ZM11.75 20.1255C11.8866 20.0832 12.0344 20.0291 12.198 19.9614C12.716 19.7472 13.3395 19.4208 14.2292 18.9539L16.2292 17.9044C17.3189 17.3325 18.0845 16.9297 18.6565 16.5477C19.2127 16.1762 19.5341 15.857 19.7563 15.4797C19.9798 15.1002 20.1103 14.6494 20.1789 13.9522C20.2492 13.2394 20.25 12.3356 20.25 11.0585V10.9415C20.25 9.6644 20.2492 8.7606 20.1789 8.04778C20.151 7.76412 20.1128 7.52125 20.0623 7.30736L16.75 8.96352V12C16.75 12.4142 16.4142 12.75 16 12.75C15.5858 12.75 15.25 12.4142 15.25 12V9.7135L11.75 11.4635V20.1255Z" fill="#64748B"/>
</svg>
