<svg width="24" height="24" viewBox="0 0 24 24" fill="none" xmlns="http://www.w3.org/2000/svg">
<path fill-rule="evenodd" clip-rule="evenodd" d="M11.5214 8.86047C9.78746 8.86047 8.38184 10.2661 8.38184 12C8.38184 13.734 9.78746 15.1395 11.5214 15.1395C13.2553 15.1395 14.6609 13.734 14.6609 12C14.6609 10.2661 13.2553 8.86047 11.5214 8.86047ZM9.63765 12C9.63765 10.9597 10.4811 10.1163 11.5214 10.1163C12.5617 10.1163 13.4051 10.9597 13.4051 12C13.4051 13.0403 12.5617 13.8837 11.5214 13.8837C10.4811 13.8837 9.63765 13.0403 9.63765 12Z" fill="#64748B"/>
<path fill-rule="evenodd" clip-rule="evenodd" d="M11.5001 3C11.1281 2.99999 10.8174 2.99999 10.5624 3.01739C10.2969 3.03551 10.0461 3.07455 9.80302 3.17525C9.23889 3.40893 8.79069 3.85713 8.55701 4.42126C8.43537 4.71496 8.40242 5.02447 8.38984 5.3609C8.37973 5.63134 8.24324 5.85699 8.04182 5.97327C7.8404 6.08956 7.57675 6.09494 7.33748 5.96848C7.03984 5.81116 6.75531 5.68492 6.44014 5.64343C5.83475 5.56373 5.22249 5.72779 4.73806 6.09951C4.52929 6.2597 4.37009 6.45734 4.22167 6.6782C4.07908 6.89035 3.92377 7.15938 3.73772 7.48164L3.71658 7.51826C3.53052 7.84051 3.3752 8.10952 3.26275 8.33908C3.1457 8.57805 3.05414 8.81475 3.01979 9.07564C2.94008 9.68103 3.10414 10.2933 3.47586 10.7778C3.66935 11.0298 3.92089 11.2132 4.20591 11.3923C4.43512 11.5363 4.56232 11.7673 4.5623 12C4.56229 12.2326 4.4351 12.4636 4.20591 12.6076C3.92086 12.7867 3.66929 12.9701 3.47578 13.2222C3.10406 13.7067 2.94001 14.3189 3.0197 14.9243C3.05405 15.1852 3.14562 15.4219 3.26267 15.6609C3.37511 15.8904 3.53043 16.1594 3.71649 16.4817L3.73764 16.5183C3.92369 16.8406 4.079 17.1096 4.22158 17.3217C4.37 17.5426 4.52921 17.7402 4.73797 17.9004C5.22241 18.2721 5.83467 18.4362 6.44005 18.3565C6.75521 18.315 7.03972 18.1888 7.33735 18.0315C7.57665 17.905 7.84034 17.9104 8.04178 18.0267C8.24323 18.143 8.37973 18.3687 8.38984 18.6392C8.40242 18.9755 8.43538 19.2851 8.55701 19.5788C8.79069 20.1429 9.23889 20.5911 9.80302 20.8248C10.0461 20.9255 10.2969 20.9645 10.5624 20.9826C10.8174 21 11.1281 21 11.5001 21H11.5424C11.9145 21 12.2251 21 12.4802 20.9826C12.7457 20.9645 12.9965 20.9255 13.2396 20.8248C13.8037 20.5911 14.2519 20.1429 14.4856 19.5788C14.6073 19.2851 14.6402 18.9755 14.6527 18.6391C14.6628 18.3687 14.7993 18.143 15.0007 18.0267C15.2022 17.9104 15.4659 17.905 15.7052 18.0314C16.0028 18.1887 16.2873 18.315 16.6025 18.3564C17.2079 18.4361 17.8201 18.2721 18.3045 17.9004C18.5133 17.7402 18.6725 17.5426 18.8209 17.3217C18.9635 17.1096 19.1188 16.8406 19.3048 16.5183L19.326 16.4817C19.512 16.1594 19.6674 15.8903 19.7799 15.6608C19.8969 15.4218 19.9884 15.1852 20.0228 14.9243C20.1025 14.3188 19.9384 13.7066 19.5667 13.2222C19.3732 12.97 19.1217 12.7867 18.8367 12.6076C18.6074 12.4636 18.4803 12.2326 18.4803 11.9999C18.4803 11.7673 18.6074 11.5364 18.8366 11.3924C19.1217 11.2133 19.3733 11.03 19.5668 10.7778C19.9385 10.2933 20.1026 9.68109 20.0229 9.0757C19.9885 8.8148 19.897 8.57811 19.78 8.33914C19.6675 8.1096 19.5122 7.8406 19.3261 7.51838L19.305 7.48173C19.1189 7.15947 18.9636 6.89041 18.821 6.67825C18.6726 6.4574 18.5134 6.25976 18.3046 6.09956C17.8202 5.72785 17.208 5.56379 16.6025 5.64349C16.2874 5.68498 16.0029 5.8112 15.7053 5.96851C15.466 6.09499 15.2023 6.0896 15.0008 5.9733C14.7994 5.857 14.6628 5.63132 14.6527 5.36086C14.6402 5.02444 14.6073 4.71494 14.4856 4.42126C14.2519 3.85713 13.8037 3.40893 13.2396 3.17525C12.9965 3.07455 12.7457 3.03551 12.4802 3.01739C12.2251 2.99999 11.9145 2.99999 11.5424 3H11.5001ZM10.2836 4.33547C10.3482 4.30872 10.4463 4.28405 10.6478 4.27029C10.8551 4.25616 11.1226 4.25581 11.5213 4.25581C11.92 4.25581 12.1876 4.25616 12.3947 4.27029C12.5963 4.28405 12.6944 4.30872 12.759 4.33547C13.0154 4.44169 13.2192 4.64542 13.3253 4.90185C13.3589 4.98273 13.3866 5.10882 13.3978 5.40779C13.4226 6.07118 13.765 6.70992 14.3729 7.06087C14.9807 7.41183 15.7052 7.38899 16.2921 7.07878C16.5565 6.93899 16.6797 6.89999 16.7664 6.88856C17.0416 6.85234 17.3199 6.92691 17.5401 7.09586C17.5956 7.13843 17.666 7.21107 17.7787 7.37874C17.8946 7.5511 18.0286 7.78264 18.2279 8.12791C18.4273 8.47318 18.5608 8.70506 18.6522 8.89155C18.741 9.07297 18.7687 9.17029 18.7778 9.23961C18.8141 9.51479 18.7395 9.79309 18.5705 10.0133C18.5172 10.0827 18.4219 10.1699 18.1685 10.329C17.6065 10.6822 17.2245 11.2981 17.2245 11.9999C17.2245 12.7018 17.6064 13.3178 18.1685 13.671C18.4218 13.8301 18.5171 13.9172 18.5704 13.9867C18.7394 14.2069 18.814 14.4852 18.7777 14.7604C18.7686 14.8297 18.7409 14.927 18.6521 15.1084C18.5607 15.2948 18.4272 15.5267 18.2279 15.872C18.0285 16.2173 17.8945 16.4488 17.7786 16.6212C17.6659 16.7888 17.5955 16.8615 17.54 16.904C17.3198 17.0731 17.0415 17.1476 16.7663 17.1114C16.6796 17.0999 16.5564 17.0609 16.292 16.9212C15.7051 16.6109 14.9807 16.5882 14.3728 16.9391C13.765 17.2901 13.4226 17.9288 13.3978 18.5922C13.3866 18.8912 13.3589 19.0172 13.3253 19.0982C13.2192 19.3545 13.0154 19.5583 12.759 19.6646C12.6944 19.6913 12.5963 19.716 12.3947 19.7297C12.1876 19.7439 11.92 19.7442 11.5213 19.7442C11.1226 19.7442 10.8551 19.7439 10.6478 19.7297C10.4463 19.716 10.3482 19.6913 10.2836 19.6646C10.0272 19.5583 9.82345 19.3545 9.71724 19.0982C9.68373 19.0172 9.65596 18.8912 9.64477 18.5922C9.61997 17.9289 9.27756 17.2901 8.66968 16.9391C8.06182 16.5882 7.33745 16.611 6.75053 16.9212C6.48603 17.061 6.36295 17.1 6.27615 17.1114C6.00096 17.1477 5.72267 17.0731 5.50247 16.9041C5.447 16.8616 5.37656 16.7889 5.26388 16.6212C5.14806 16.4489 5.01398 16.2174 4.81464 15.8721C4.61529 15.5268 4.48181 15.2949 4.39046 15.1085C4.3016 14.9271 4.2739 14.8297 4.26478 14.7604C4.22855 14.4852 4.30312 14.2069 4.47209 13.9867C4.52538 13.9173 4.6207 13.8301 4.87403 13.671C5.43612 13.3179 5.81808 12.7019 5.81812 12.0001C5.81816 11.2981 5.43617 10.6821 4.87404 10.3289C4.62077 10.1698 4.52546 10.0827 4.47216 10.0132C4.3032 9.79303 4.22863 9.51474 4.26486 9.23955C4.27398 9.17024 4.30168 9.07291 4.39054 8.8915C4.48189 8.705 4.61537 8.47312 4.81471 8.12785C5.01406 7.78258 5.14813 7.55104 5.26397 7.37868C5.37665 7.21102 5.44708 7.13837 5.50255 7.09581C5.72275 6.92685 6.00105 6.85228 6.27622 6.8885C6.36303 6.89993 6.48613 6.93893 6.75066 7.07875C7.33754 7.38894 8.06188 7.41178 8.66972 7.06084C9.27757 6.70991 9.61997 6.07119 9.64477 5.40783C9.65596 5.10884 9.68373 4.98274 9.71724 4.90185C9.82345 4.64542 10.0272 4.44169 10.2836 4.33547Z" fill="#64748B"/>
</svg>
